<svg xmlns="http://www.w3.org/2000/svg" viewBox="0 0 392.32 337.03"><defs><style>.cls-1{fill:#0072c6;}.cls-2{fill:#6d6e71;}</style></defs><title>icon.svg</title><g id="Layer_2" data-name="Layer 2"><g id="Layer_1-2" data-name="Layer 1"><path class="cls-1" d="M285.51,40.8,236.15,173.1H204.29l22.59-60.47,34.71-92.89A118.31,118.31,0,0,0,104.68,193.35L143.57,90.29l24.61-7.05h0a5.25,5.25,0,0,1,1.32-.17A5.93,5.93,0,0,1,175.43,89a5.85,5.85,0,0,1-.39,2.06c0,.08,0,.16-.07.24h0L128.28,215.21A118.29,118.29,0,0,0,285.51,40.8ZM190.68,173.1H158.82l36.43-97.78,24.6-7a5.81,5.81,0,0,1,1.32-.16,5.9,5.9,0,0,1,5.55,8,.56.56,0,0,0,0,.12l-.06.15Z"/><path class="cls-2" d="M30.21,326.46q-.91-2.29-2.63-6.06t-3.83-8.23q-2.12-4.44-4.33-9.18t-4.24-8.86c-1.36-2.76-2.56-5.17-3.6-7.25s-1.82-3.55-2.31-4.41Q8.09,293.95,7.39,307.4T6.15,335.64H0q.83-17.36,1.88-33.25T4.5,272H10q2.76,4.59,5.89,10.61t6.21,12.48q3.09,6.5,6,12.78T33.2,319.2q2.2-5,5.1-11.33t6-12.78q3.09-6.46,6.22-12.48T56.39,272h5.23q1.56,14.5,2.62,30.39t1.89,33.25H59.78q-.54-14.79-1.23-28.24t-1.89-24.93c-.49.86-1.25,2.33-2.3,4.41s-2.23,4.49-3.57,7.25S48,299.84,46.56,303s-2.91,6.22-4.31,9.18-2.69,5.72-3.82,8.23-2,4.53-2.62,6.06Z"/><path class="cls-2" d="M95.05,287.06A21,21,0,0,1,103,288.4a13.62,13.62,0,0,1,5.28,3.66,14.49,14.49,0,0,1,2.94,5.56,25.5,25.5,0,0,1,.92,7v29.94a24.32,24.32,0,0,1-2.66.59c-1.17.23-2.52.45-4,.7s-3.23.44-5.09.6-3.79.22-5.74.22a27.9,27.9,0,0,1-6.93-.82,15.3,15.3,0,0,1-5.51-2.62,12.5,12.5,0,0,1-3.68-4.59,15.85,15.85,0,0,1-1.33-6.85,13.81,13.81,0,0,1,1.47-6.6,12.34,12.34,0,0,1,4.13-4.55A18.44,18.44,0,0,1,89.08,308a36.39,36.39,0,0,1,8-.82c.85,0,1.76,0,2.71.13s1.87.21,2.75.37,1.65.31,2.3.46a6.94,6.94,0,0,1,1.33.41v-2.94a30.45,30.45,0,0,0-.37-4.82,10.4,10.4,0,0,0-1.61-4.22,9,9,0,0,0-3.48-3,13.14,13.14,0,0,0-5.92-1.14,30.6,30.6,0,0,0-7.81.73c-1.72.49-3,.89-3.77,1.2l-.82-5.24a22.44,22.44,0,0,1,4.82-1.38A41.1,41.1,0,0,1,95.05,287.06Zm.55,44.27c2.32,0,4.36-.08,6.1-.23a44.72,44.72,0,0,0,4.46-.6V313.78a19.53,19.53,0,0,0-3.22-1,28.9,28.9,0,0,0-6.06-.5,35.27,35.27,0,0,0-4.59.31,13.18,13.18,0,0,0-4.4,1.39,9.15,9.15,0,0,0-3.31,2.89,8.27,8.27,0,0,0-1.29,4.86,10.51,10.51,0,0,0,.87,4.51,7.44,7.44,0,0,0,2.49,2.94,11.28,11.28,0,0,0,3.86,1.61A24.31,24.31,0,0,0,95.6,331.33Z"/><path class="cls-2" d="M137.11,331.42a18.76,18.76,0,0,0,8.49-1.7A5.93,5.93,0,0,0,149,324a8.35,8.35,0,0,0-.6-3.3,6.38,6.38,0,0,0-2-2.48,17.15,17.15,0,0,0-3.64-2.12q-2.24-1-5.55-2.39-2.67-1.1-5-2.25a20.7,20.7,0,0,1-4.23-2.66,11.59,11.59,0,0,1-2.93-3.63,10.91,10.91,0,0,1-1.11-5.14,11.54,11.54,0,0,1,4.37-9.37q4.35-3.58,12-3.58a32.44,32.44,0,0,1,8,.83,24.43,24.43,0,0,1,4.46,1.47l-1.37,5.32c-.74-.36-2-.85-3.73-1.47a24.52,24.52,0,0,0-7.67-.91,16.58,16.58,0,0,0-3.8.41A10.15,10.15,0,0,0,133,294a6.86,6.86,0,0,0-2.21,2.21,6.07,6.07,0,0,0-.83,3.26,7,7,0,0,0,.74,3.32,7.48,7.48,0,0,0,2.15,2.44,18.33,18.33,0,0,0,3.5,2c1.38.61,2.95,1.28,4.73,2s3.59,1.47,5.28,2.24a19.32,19.32,0,0,1,4.45,2.75,12.81,12.81,0,0,1,3.12,3.85,12,12,0,0,1,1.2,5.65q0,6.44-4.82,9.73t-13.18,3.32a33.57,33.57,0,0,1-9.55-1.06,36.82,36.82,0,0,1-4.41-1.61l1.56-5.42a9.67,9.67,0,0,0,1.2.6,25.93,25.93,0,0,0,2.47.92,26.2,26.2,0,0,0,3.73.87A30.49,30.49,0,0,0,137.11,331.42Z"/><path class="cls-1" d="M225.55,303.78a39.44,39.44,0,0,1-2.44,14.42,29.77,29.77,0,0,1-6.61,10.42,27.28,27.28,0,0,1-9.78,6.29A33.7,33.7,0,0,1,194.78,337a34.13,34.13,0,0,1-12-2.11,27.3,27.3,0,0,1-9.83-6.29,30.45,30.45,0,0,1-6.66-10.42,39,39,0,0,1-2.47-14.42,38.61,38.61,0,0,1,2.47-14.38A30.42,30.42,0,0,1,173.06,279a27.84,27.84,0,0,1,9.88-6.33,34.15,34.15,0,0,1,23.69,0,26.93,26.93,0,0,1,9.78,6.33,31.29,31.29,0,0,1,6.66,10.42A38.6,38.6,0,0,1,225.55,303.78Zm-49.69,0a33.12,33.12,0,0,0,1.29,9.5,20.79,20.79,0,0,0,3.72,7.25,16.78,16.78,0,0,0,5.92,4.64,18.13,18.13,0,0,0,7.9,1.66,17.92,17.92,0,0,0,7.81-1.66,16.87,16.87,0,0,0,5.92-4.64,20.79,20.79,0,0,0,3.72-7.25,35.66,35.66,0,0,0,0-19,21,21,0,0,0-3.72-7.26,17,17,0,0,0-5.92-4.63,18.06,18.06,0,0,0-7.81-1.66,18.28,18.28,0,0,0-7.9,1.66,16.55,16.55,0,0,0-5.92,4.68,21.48,21.48,0,0,0-3.72,7.26A32.59,32.59,0,0,0,175.86,303.78Z"/><path class="cls-1" d="M307.92,311.85a30.22,30.22,0,0,1,1.88-11.1,23.39,23.39,0,0,1,5-7.95A20.72,20.72,0,0,1,322,288a22.29,22.29,0,0,1,8.27-1.61q9.92,0,15.47,6.15t5.56,18.36c0,.62,0,1.31,0,2.08s-.08,1.45-.14,2.07H319.4a12.68,12.68,0,0,0,4.09,8.95q3.63,3.17,10.52,3.16a34.6,34.6,0,0,0,7.39-.73,29.82,29.82,0,0,0,5.28-1.57l1.47,9.1a16.67,16.67,0,0,1-2.53,1,33.23,33.23,0,0,1-3.67.92c-1.38.28-2.86.5-4.46.68a38.92,38.92,0,0,1-4.86.29,29.55,29.55,0,0,1-11-1.89,20.54,20.54,0,0,1-7.72-5.23,21.52,21.52,0,0,1-4.5-7.9A32.24,32.24,0,0,1,307.92,311.85Zm32.24-5a14.51,14.51,0,0,0-.65-4.36,10.11,10.11,0,0,0-1.88-3.58,8.54,8.54,0,0,0-3-2.39,9.54,9.54,0,0,0-4.27-.87,10,10,0,0,0-4.5,1,10.19,10.19,0,0,0-3.26,2.52,11.46,11.46,0,0,0-2.07,3.58,19.86,19.86,0,0,0-1,4.14Z"/><path class="cls-1" d="M390.39,297.62a33.39,33.39,0,0,0-3.81-1,27.73,27.73,0,0,0-5.65-.51,27.18,27.18,0,0,0-6.79,1v38.47H363V289.91a59.56,59.56,0,0,1,8-2.25,50.35,50.35,0,0,1,10.7-1.05c.74,0,1.59,0,2.57.13s2,.22,2.94.36,1.93.34,2.85.56,1.65.41,2.2.59Z"/><path class="cls-1" d="M248.78,303h17.44v-9.27H248.78v-3.21a18.64,18.64,0,0,1,.46-4.27,8.18,8.18,0,0,1,1.56-3.35,7.28,7.28,0,0,1,2.94-2.16,11.3,11.3,0,0,1,4.5-.79,20.82,20.82,0,0,1,4.45.46,18.17,18.17,0,0,1,3.63,1.2l2.11-9.18a36.27,36.27,0,0,0-4.41-1.24,29.88,29.88,0,0,0-6.79-.69q-9.84,0-14.7,5.28t-4.87,14.56V337h11.12Z"/><path class="cls-1" d="M286.34,286.28a8.05,8.05,0,0,1,1.56-3.35,7.28,7.28,0,0,1,2.94-2.16,11.3,11.3,0,0,1,4.5-.79,20.89,20.89,0,0,1,4.45.46,18.17,18.17,0,0,1,3.63,1.2l2.11-9.18a36.27,36.27,0,0,0-4.41-1.24,29.82,29.82,0,0,0-6.79-.69q-9.82,0-14.69,5.28t-4.88,14.56V337h11.12V303h17.45v-9.27H285.88v-3.21A18.64,18.64,0,0,1,286.34,286.28Z"/></g></g></svg>